<?xml version="1.0" encoding="UTF-8" standalone="no"?>
<!-- Created with Inkscape (http://www.inkscape.org/) -->

<svg
   version="1.1"
   id="svg1"
   width="181.08"
   height="92.346664"
   viewBox="0 0 181.08 92.346664"
   sodipodi:docname="aak_02_venstrejusteret_negativ.eps"
   xmlns:inkscape="http://www.inkscape.org/namespaces/inkscape"
   xmlns:sodipodi="http://sodipodi.sourceforge.net/DTD/sodipodi-0.dtd"
   xmlns="http://www.w3.org/2000/svg"
   xmlns:svg="http://www.w3.org/2000/svg">
  <defs
     id="defs1" />
  <sodipodi:namedview
     id="namedview1"
     pagecolor="#ffffff"
     bordercolor="#000000"
     borderopacity="0.25"
     inkscape:showpageshadow="2"
     inkscape:pageopacity="0.0"
     inkscape:pagecheckerboard="0"
     inkscape:deskcolor="#d1d1d1">
    <inkscape:page
       x="0"
       y="0"
       inkscape:label="1"
       id="page1"
       width="181.08"
       height="92.346664"
       margin="0"
       bleed="0" />
  </sodipodi:namedview>
  <g
     id="g1"
     inkscape:groupmode="layer"
     inkscape:label="1">
    <g
       id="group-R5">
      <path
         id="path2"
         d="m 158.184,257.695 c -0.188,0.41 -0.418,0.762 -0.625,1.075 -0.246,0.332 -0.528,0.644 -0.879,0.957 0,0 -2.481,-1.094 -3.504,-2.579 -2.024,-2.851 2,-9.199 2,-9.199 -3.367,1.114 -5.457,3.946 -5.547,5.879 -0.078,2.598 2.363,8.418 2.363,8.418 0.762,2.324 1.563,5.645 2.356,9.082 0.797,3.36 1.55,6.817 2.683,10.86 2.285,7.929 5.625,16.875 7.52,24.863 1.426,5.879 2.5,11.054 2.851,14.551 0.86,8.574 1.895,24.687 2.481,35.273 0.332,5.664 0.222,4.238 0.222,4.707 0,1.367 0.793,15.699 7.622,21.676 4.5,3.91 8.738,3.246 13.914,5.715 0,0 -7.403,3.031 -16.512,1.007 0,0 -15.734,-12.367 -23.215,-67.519 0,0 -9.187,-51.328 -9.492,-56.563 -0.137,-2.714 2.422,-15.703 2.422,-15.703 0,0 7.988,-3.457 9.668,-3.125 1.035,0.371 2.441,0.45 4.804,1.094 2.344,0.684 3.797,0.84 7.832,-0.488 -9.589,4.297 -7.675,7.617 -8.964,10.019"
         style="fill:#ffffff;fill-opacity:1;fill-rule:nonzero;stroke:none"
         transform="matrix(0.13333333,0,0,-0.13333333,0,92.346667)" />
      <path
         id="path3"
         d="m 225.09,441.883 9.473,-0.352 c 2.82,-0.097 4.531,0.742 4.363,2.598 -0.137,1.504 -4.141,2.285 -4.141,2.285 l -6.875,-1.062 c 0,0 -0.808,-2.922 -2.82,-3.469"
         style="fill:#ffffff;fill-opacity:1;fill-rule:nonzero;stroke:none"
         transform="matrix(0.13333333,0,0,-0.13333333,0,92.346667)" />
      <path
         id="path4"
         d="m 314.617,391.855 c 0,0.774 -1.394,12.43 -1.394,21.329 -0.039,4.558 -0.11,8.367 -0.149,9.636 -0.125,2.696 -2.801,1.457 -3.328,0.422 -1.316,-2.422 -1.894,-1.902 -1.894,-1.902 0,0 -0.821,0.144 -0.977,-2.211 -0.352,1.719 -0.547,1.574 -1.055,2.082 -1.941,1.855 -3.007,-4.621 -3.007,-4.621 0,0 -0.176,-1.328 -0.274,-4.551 -0.019,-0.672 -0.059,-1.504 -0.059,-2.351 0,-3.301 0.293,-9.407 2.317,-13.899 0.379,-0.742 0.84,-1.004 1.433,-1.062 0,0 -0.644,-4.563 0.801,-6.778 2.688,-4.164 4.141,-3.207 4.141,-3.207 4.805,3.969 3.476,5.453 3.445,7.113"
         style="fill:#ffffff;fill-opacity:1;fill-rule:nonzero;stroke:none"
         transform="matrix(0.13333333,0,0,-0.13333333,0,92.346667)" />
      <path
         id="path5"
         d="m 202.129,402.762 c 0,-2.422 0.879,-4.657 2.305,-6.543 -2.422,-2.246 -5.215,-5.281 -5.743,-5.977 -1.046,-1.355 -3.183,-1.961 -3.183,-1.961 0,0 -2.285,-13.847 2.89,-11.992 0,0 0.821,3.316 3.614,2.711 4.668,-1.016 5.918,0.762 7.812,2.207 1.262,0.957 5.031,0.176 5.031,0.176 2.938,0.644 6.415,-0.801 7.008,1.875 -0.015,0.371 -0.105,0.664 -0.105,0.664 -2.344,1.953 -9.016,1.016 -9.016,1.016 0,0 1.028,0.41 2.453,0.605 0.481,0.098 1.407,-0.02 1.485,0.762 0,0 0.578,-0.02 3.633,-0.938 2.46,-0.781 2.617,0.449 2.773,0.938 -0.059,0.929 -0.75,1.574 -0.75,1.574 0,0 -3.234,1.34 -4.777,1.613 -1.512,0.235 -5.743,-0.332 -5.743,-0.332 0,0 0.157,0.176 2.61,0.692 0.887,0.195 1.765,0.195 1.687,0.957 0,0 1.758,-0.164 4.121,-1.317 1.621,-0.801 2.422,-0.773 2.871,-0.519 0.157,0.265 0.547,0.597 0.606,0.84 0,0.187 0,0.382 0,0.546 -0.195,1.368 -1.465,1.907 -1.465,1.907 0,0 -5.027,1.785 -6.387,1.922 -1.347,0.187 -5.742,-0.926 -5.742,-0.926 1.113,0.789 2.344,0.886 3.762,1.14 1.98,0.383 1.726,1.457 1.726,1.457 0,0 0.418,-0.625 4.395,-1.796 1.094,-0.344 3.938,-1.797 3.105,0.8 -0.214,0.34 -0.722,0.926 -1.25,1.375 1.258,1.778 2.059,3.938 2.11,6.301 0.117,6.121 -4.727,11.211 -10.762,11.348 -0.742,0 -1.445,-0.274 -2.187,-0.41 0,0 0.019,0 0.019,0.027 -2.851,-4.031 -6.367,-7.801 -8.906,-10.742 m 7.031,4.074 c 1.074,1.023 2.461,1.602 3.953,1.582 3.078,-0.07 5.52,-2.656 5.473,-5.762 -0.031,-1.828 -0.949,-3.34 -2.277,-4.347 -0.547,0.175 -0.996,0.265 -1.114,0.351 -0.5,0.293 -3.332,0.11 -5.976,0.031 -0.059,0.067 -0.137,0.106 -0.203,0.164 -1.028,1.086 -1.575,2.524 -1.555,4.004 0.059,1.516 0.613,2.942 1.699,3.977"
         style="fill:#ffffff;fill-opacity:1;fill-rule:nonzero;stroke:none"
         transform="matrix(0.13333333,0,0,-0.13333333,0,92.346667)" />
      <path
         id="path6"
         d="m 209.617,255.625 c -5.437,3.965 -19.859,-2.812 -19.859,-2.812 0,0 -2.617,-6.075 2.703,-5.977 2.891,0.059 7.852,-0.254 11.777,0.605 3.145,0.645 7.981,-0.586 12.141,-0.644 6.25,1.719 -6.762,8.828 -6.762,8.828"
         style="fill:#ffffff;fill-opacity:1;fill-rule:nonzero;stroke:none"
         transform="matrix(0.13333333,0,0,-0.13333333,0,92.346667)" />
      <path
         id="path7"
         d="m 124.973,287.246 c -1.164,-6.894 -3.782,-18.906 -4.192,-23.242 -0.371,-4.336 -0.527,-12.031 -0.527,-12.031 1.633,-0.977 3.672,-1.719 4.414,-2.11 l 8.059,65.84 c 0,0 -6.567,-21.582 -7.754,-28.457"
         style="fill:#ffffff;fill-opacity:1;fill-rule:nonzero;stroke:none"
         transform="matrix(0.13333333,0,0,-0.13333333,0,92.346667)" />
      <path
         id="path8"
         d="m 228.164,446.309 6.621,0.105 c 4.727,-0.328 6.153,1.672 4.375,3.606 -0.93,1.015 -7.656,0.945 -7.656,0.945 l -4.453,-1.551 c 0,0 2.246,-0.48 1.113,-3.105"
         style="fill:#ffffff;fill-opacity:1;fill-rule:nonzero;stroke:none"
         transform="matrix(0.13333333,0,0,-0.13333333,0,92.346667)" />
      <path
         id="path9"
         d="m 477.617,385.152 -2.383,138.578 h 9.746 l -42.089,83.426 c 4.199,2.11 7.109,6.477 7.109,11.504 0,7.09 -5.801,12.891 -12.91,12.891 -7.11,0 -12.891,-5.801 -12.891,-12.891 0,-5.027 2.891,-9.394 7.071,-11.504 L 389.199,523.73 h 9.746 l -0.703,-40.566 -2.551,9.766 c -8.418,32.683 -38.074,56.816 -73.336,56.816 -0.636,0 -1.281,-0.019 -1.867,-0.051 -5.84,27.59 -26.718,49.668 -53.593,57.219 v 27.227 h 4.043 l -19.891,39.375 c 3.301,1.679 5.555,5.066 5.555,8.972 0,5.567 -4.512,10.078 -10.071,10.078 -5.554,0 -10.066,-4.511 -10.066,-10.078 0,-3.906 2.226,-7.293 5.527,-8.972 l -19.883,-39.375 h 4.063 v -27.227 c -26.875,-7.551 -47.734,-29.629 -53.594,-57.219 -0.613,0.032 -1.25,0.051 -1.875,0.051 -35.273,0 -64.883,-24.133 -73.3397,-56.816 l -2.5586,-9.766 -0.7031,40.566 h 9.7264 l -42.0428,83.426 c 4.1914,2.11 7.0625,6.477 7.0625,11.504 0,7.09 -5.7422,12.891 -12.8907,12.891 -7.1093,0 -12.8632,-5.801 -12.8632,-12.891 0,-5.027 2.875,-9.394 7.0703,-11.504 L 8.07422,523.73 H 17.832 L 15.4492,385.152 H 2.57813 L 0,246.543 h 111.836 l -2.395,138.609 v 63.102 c 0,10.016 2.61,25.105 5.422,35.066 0.957,3.321 1.973,6.532 3.047,9.61 7.793,21.668 28.496,37.148 52.793,37.148 7.207,0 14.102,-1.387 20.402,-3.808 -0.324,2.507 -0.539,5.058 -0.539,7.683 0,30.977 24.942,56.145 55.965,56.145 30.989,0 55.949,-25.168 55.949,-56.145 0,-2.625 -0.175,-5.176 -0.527,-7.683 6.309,2.421 13.184,3.808 20.402,3.808 24.305,0 45.008,-15.48 52.782,-37.148 1.113,-3.078 2.097,-6.289 3.047,-9.61 2.839,-9.961 5.429,-25.05 5.429,-35.066 V 385.152 L 381.23,246.543 h 111.817 l -2.559,138.609 z M 46.2891,492.461 h 0.0195 v 1.512 c 0.3711,5.05 4.5508,9.023 9.6484,9.023 2.6953,0 5.086,-1.082 6.8438,-2.851 1.6055,-1.622 2.6484,-3.739 2.8125,-6.172 h 0.0508 V 439.277 H 46.2891 Z M 41.7852,273.184 H 22.4219 v 50.664 c 0,0.254 0,0.507 0.039,0.722 0.3711,5.02 4.5508,8.985 9.6485,8.985 5.0781,0 9.2383,-3.965 9.6289,-8.985 0,-0.215 0.0469,-0.468 0.0469,-0.722 z m 14.1718,66.894 c -8.0468,0 -14.6093,6.524 -14.6093,14.59 0,8.047 6.5625,14.59 14.6093,14.59 8.0743,0 14.5899,-6.543 14.5899,-14.59 0,-8.066 -6.5156,-14.59 -14.5899,-14.59 M 89.5703,273.184 H 70.2422 v 50.664 c 0,0.254 0,0.507 0.0234,0.722 0.3789,5.02 4.5703,8.985 9.6563,8.985 5.0976,0 9.2578,-3.965 9.6289,-8.985 0.0195,-0.215 0.0195,-0.468 0.0195,-0.722 z M 427.422,493.973 h 0.019 c 0.176,2.433 1.231,4.55 2.801,6.172 1.75,1.769 4.184,2.851 6.848,2.851 5.129,0 9.316,-3.973 9.668,-9.023 v -1.512 h 0.019 v -53.184 h -19.355 z m -4.59,-220.789 h -19.375 v 50.664 c 0,0.254 0.027,0.507 0.051,0.722 0.387,5.02 4.527,8.985 9.617,8.985 5.117,0 9.277,-3.965 9.688,-8.985 0,-0.215 0.019,-0.468 0.019,-0.722 z m 14.258,66.894 c -8.047,0 -14.61,6.524 -14.61,14.59 0,8.047 6.563,14.59 14.61,14.59 8.066,0 14.609,-6.543 14.609,-14.59 0,-8.066 -6.543,-14.59 -14.609,-14.59 m 33.562,-66.894 H 451.25 v 50.664 c 0,0.254 0.039,0.507 0.039,0.722 0.41,5.02 4.57,8.985 9.68,8.985 5.086,0 9.246,-3.965 9.644,-8.985 0.012,-0.215 0.039,-0.468 0.039,-0.722 v -50.664"
         style="fill:#ffffff;fill-opacity:1;fill-rule:nonzero;stroke:none"
         transform="matrix(0.13333333,0,0,-0.13333333,0,92.346667)" />
      <path
         id="path10"
         d="m 266.465,420.09 c 0.879,-0.063 2.168,0.086 3.359,0.562 1.992,0.879 4.844,3.418 6.055,6.047 0.469,2.781 -1.445,4.883 -2.715,5.457 -1.016,0.449 -1.648,0.391 -2.715,0.039 -1.023,-0.332 -3.301,-1.523 -3.301,-1.523 0.735,0.723 0.391,2.199 0.391,2.199 1.699,-1.16 8.789,1.965 7.402,10.145 -0.273,1.699 -0.527,2.14 -0.507,3.039 0.039,1.375 0.214,2.48 0,3.515 -0.262,1.465 0.539,4.188 0.371,5.52 -0.137,1.344 -2.188,1.012 -3.008,0.664 -2.852,-1.281 -2.949,-5.891 -3.262,-7.336 0,0 -0.41,0.098 -0.898,0.352 -0.645,0.242 -0.723,0.734 -1.446,1.425 -0.363,0.321 -1.718,1.961 -2.285,2.754 -0.586,0.77 -4.648,5.223 -6.457,6.895 -1.746,1.582 -2.929,0.105 -3.015,-1.028 -0.137,-1.289 3.339,-6.16 3.339,-6.16 2.832,-3.808 3.633,-4.14 3.633,-4.14 l -0.761,-0.586 c 0,0 0.332,0.449 -3.625,4.726 -0.477,0.489 -4.11,5.598 -5.536,7.051 -1.484,1.543 -3.046,-0.019 -3.308,-0.566 -0.91,-1.934 5,-8.985 5,-8.985 2.527,-3.644 4.644,-5 4.644,-5 l -0.855,-0.754 c 0.508,0.442 -4.563,5.754 -4.563,5.754 -2.07,2.141 -3.711,4.844 -5.273,6.035 -2.051,1.473 -2.734,-1.906 -1.68,-3.398 0.391,-0.52 1.121,-1.945 2.559,-3.938 1.367,-1.804 6.172,-6.386 6.172,-6.386 l -0.469,-0.36 c -1.211,1.532 -4.973,5.313 -7.59,7.129 -2.605,1.817 -3.34,-0.527 -2.683,-1.808 0.593,-1.2 3.417,-4.61 4.074,-5.371 0.691,-0.77 5.801,-4.469 6.148,-5.008 0.598,-0.938 2.004,-2.891 2.317,-3.293 0.617,-0.828 2.441,-3.445 3.554,-4.336 0,0 2.207,-1.453 3.574,-0.801 -1.25,-3.516 -0.058,-7.5 3.36,-8.531"
         style="fill:#ffffff;fill-opacity:1;fill-rule:nonzero;stroke:none"
         transform="matrix(0.13333333,0,0,-0.13333333,0,92.346667)" />
      <path
         id="path11"
         d="m 257.695,269.902 c -0.554,-3.066 -1.152,-6.562 -1.445,-8.105 -2.488,-13.906 0.547,-18.926 0.547,-18.926 0,0 4.609,3.672 6.98,17.598 1.25,7.148 5.754,32.715 9.875,55.957 -1.211,11.074 -1.875,21.543 0.86,24.043 1.66,1.523 4.863,4.082 3.972,3.359 1.575,8.828 2.59,14.707 2.59,14.707 l 12.84,-4.824 c -5.262,-2.07 -8.68,-4.863 -12.598,-7.676 -7.605,-11.816 -4.546,-27.383 -3.711,-32.597 0.969,-6.133 -1.902,-15.274 -1.902,-15.274 1.328,-14.707 3.77,-23.32 3.77,-23.32 0,0 3.054,-7.676 8.613,-9.571 0,0 -5.918,0.918 -6.875,2.832 0,0 -1.504,-1.484 -2.09,-2.988 0,0 -5.586,-3.789 -3.594,-7.285 -1.992,-1.992 -2.097,-2.344 -4.597,-3.926 -2.461,-1.582 -2.903,-1.933 -7.129,-3.652 -1.399,-0.586 -3.274,-1.738 -3.84,-2.734 -0.195,-0.762 0.391,-0.899 0.566,-0.625 0.813,1.035 2.078,1.582 2.078,1.582 -1.777,-0.957 -1.707,-2.012 -1.14,-2.461 l 0.273,-0.098 c 0.364,-0.098 1.016,0 1.731,1.348 0.308,0.644 0.984,1.211 2.488,1.718 -0.391,-0.254 -3.203,-1.406 -1.992,-3.203 1.777,-0.781 2.695,1.563 3.066,1.953 1.25,1.25 2.344,1.27 4.199,1.739 -4.003,-1.153 -4.406,-1.856 -3.3,-3.711 0.898,-0.957 3.359,-1.094 5.539,-0.235 3.633,0.039 8.933,2.911 12.254,3.067 1.308,0.117 1.308,-0.02 3.398,-0.684 1.211,-0.39 4.734,-0.39 5.371,0.801 2.227,4.238 -5.183,8.965 -6.504,9.609 -1.3,0.645 -4.48,2.91 -4.48,2.91 0,0 4.265,-2.402 7.84,-3.593 2.636,-1.035 4.355,-1.348 4.914,-1.407 4.988,-0.644 7.449,1.817 12.168,2.188 11.238,10.195 13.379,15.43 16.902,31.016 1.453,6.211 3.953,15.742 4.59,23.125 -0.43,-9.766 -0.391,-12.5 -0.195,-16.075 0.312,-5.937 0.918,-25.546 0.468,-28.75 -0.468,-3.203 -2.16,-3.964 -2.16,-3.964 0,0 2.856,-7.383 9.289,-8.223 1.516,-0.156 3.262,0 5.196,0.742 0,0 6.398,-4.824 15.742,-1.719 1.472,0.508 3.039,1.231 4.726,2.207 1.094,0.645 1.242,50.996 0.684,57.676 -0.371,4.531 -0.801,5.781 -2.149,7.93 -1.699,3.652 -4.882,6.66 -4.882,6.66 0,0 -1.895,1.152 -1.629,4.395 0.418,5.097 1.101,4.648 2.801,2.46 3.105,-4.218 2.949,-8.183 3.71,-13.515 0,0 1.512,-2.051 3.653,-5.781 1.211,-2.149 0.691,-6.055 0.898,-9.297 0,0 0.313,-44.864 0.137,-49.258 0.586,1.621 1.973,3.301 1.973,3.301 0,0 0.144,55.371 -1.375,67.129 -0.403,3.027 -1.829,4.433 -2.18,7.031 -1.055,7.93 -1.328,10.039 -3.359,13.066 0,0 2.343,-1.894 4.511,-7.226 1.465,-3.633 2.637,-8.809 3.848,-16.094 0.742,-4.102 2.266,-10.527 2.266,-10.527 1.23,18.632 -2.403,26.425 -2.403,26.425 -1.164,3.203 -3.105,7.871 -5.078,11.016 -2.051,3.418 -4.141,6.035 -4.668,6.836 -7.871,12.832 -8.926,16.836 -16.894,32.266 -7.969,15.441 -5.997,28.418 -5.997,28.418 0,0 1.504,-5.547 3.497,-7.208 0.683,-0.539 2.421,-4.191 1.679,-8.984 -0.254,-1.406 0.196,-5.976 4.278,-14.219 4.98,-10.023 9.355,-17.793 12.285,-21.425 2.707,-3.36 4.16,-2.93 4.16,-2.93 -1.453,11.855 -11.641,49.98 -11.641,49.98 0,0 3.848,-2.312 5.528,-9.082 0.578,-2.257 1.66,-9.707 3.691,-17.656 2.734,-10.898 10.82,-39.746 11.328,-40.547 -2.93,19.238 -2.058,19.238 -3.926,26.934 -1.132,4.683 -0.656,11.285 -1.562,17.746 -1.387,10.008 -1.777,13.308 -1.914,15.223 -1.133,19.16 -7.149,20.402 -7.149,20.402 2.715,7.262 -0.769,9.148 -0.769,9.148 -1.582,1.063 -5.012,2.227 -6.242,1.668 -2.52,-1.64 -1.895,2.063 -4.395,0.84 -1.562,-0.762 -5.488,-2.058 -5.488,-2.058 7.39,5.695 4.297,7.421 4.297,7.421 -6.758,-9.277 -16.16,-8.351 -16.16,-8.351 -2.832,-0.274 -5.598,-0.235 -7.219,-0.047 -1.153,0.137 -1.824,-0.871 -2.305,-2.063 -0.156,0.208 -0.332,0.481 -0.566,0.61 0.578,0.828 1.047,1.637 -0.469,2.742 -0.559,0.391 -0.918,0.828 -1.191,1.258 0,0 -1.231,2.621 -0.137,4.551 0.859,1.449 2.09,2.5 2.09,4.472 -2.032,0.129 -4.981,-0.633 -6.094,-1.875 -1.145,-1.218 -1.902,-2.246 -3.398,-3.621 -1.25,-1.262 -2.032,-2.82 -2.708,-5.39 -0.574,-2.364 2.375,-3.614 2.375,-3.614 0,0 -6.054,0.801 -2.453,5.879 -0.574,-0.566 -2.925,-1.465 -4.363,-2.551 -1.445,-1.121 -2.266,-4.07 -3.144,-5.625 -0.899,-1.582 -2.383,-4.746 -3.274,-5.769 -0.879,-1.016 -3.641,-6.484 -3.426,-8.32 0.821,1.277 3.782,2.586 3.782,2.586 1.414,0.5 2.429,0.683 3.816,0.5 1.426,-0.168 1.426,-0.5 3.887,1.777 2.39,2.246 3.117,5.039 6.062,6.961 1.867,1.203 4.367,2.207 6.067,3.137 0.117,-0.665 0.507,-1.172 1.062,-1.348 0.481,-0.137 0.949,0.019 1.352,0.34 -0.227,-2.117 -0.571,-5.719 -0.637,-9.16 -0.02,-1.797 0,-3.524 0.184,-5.008 0.695,-5.957 1.906,-8.731 2.628,-11.535 0,0 -3.808,6.211 -4.257,9.511 0,0 -0.274,-20.828 1.855,-25.175 -1.387,-1.141 -2.656,-2.184 -3.047,-2.442 l -0.652,-0.476 c -0.742,-0.571 -2.414,-1.782 -2.414,-1.782 -0.156,-0.078 -0.371,-0.195 -0.586,-0.371 -1.641,-0.996 -5.098,-3.047 -5.84,-3.32 -0.84,-0.41 -1.863,-0.215 -3.34,-0.215 -1.496,0 -2.234,-0.937 -3.164,-1.855 0,0 -3.965,-0.743 -4.973,-0.118 -0.671,0.391 -3.093,2.09 -4.949,3.438 -0.886,0.644 -1.621,1.191 -1.992,1.523 1.816,0.547 3.301,1.543 3.574,3 0.137,0.899 -0.234,1.778 -0.793,2.618 0.063,0 0.039,0 0.09,0.011 l -6.277,3.477 c 4.578,0.508 5.496,-0.539 7.527,1.258 2.371,2.121 5.774,5.109 8.731,7.531 2.968,2.461 2.187,6.98 2.761,9.949 0.364,10.938 -10.457,5.188 -10.457,5.188 l -0.918,-2.754 c -0.175,-0.528 -1.757,-0.938 -2.148,-0.684 7.844,-5.234 3.437,-11.484 3.437,-11.484 0,0 3.411,6.172 -3.093,8.066 -8.047,2.363 -9.875,9.473 -10.95,10.926 -2.5,3.301 -4.636,-0.652 -6.687,-1.27 -1.457,-0.437 -2.023,-0.574 -5.246,0.063 -2.129,0.223 -3.281,1.89 -3.926,3.023 -0.703,1.223 -0.566,3.242 -0.566,3.242 0,0 -2.293,-2.183 -0.43,-5.269 1.855,-3.09 3.398,-8.352 3.887,-10.168 0.508,-1.816 2.07,-7.012 10.886,-17.578 0,0 0.43,-0.391 1.047,-0.969 -1.101,-0.633 -1.933,-1.453 -2.129,-2.519 -0.273,-1.668 0.84,-3.379 2.813,-4.563 -0.02,-0.137 -0.078,-0.293 -0.086,-0.41 -1.977,-0.859 -3.996,-1.895 -4.563,-2.266 -1.64,-1.093 -2.558,-1.953 -2.812,-2.949 0,-1.426 0.879,-1.504 2.656,-0.43 0.469,0.274 4.258,1.68 4.805,1.914 0.937,0.411 1.914,0.118 1.914,0.118 0,0 -7.168,-3.164 -8.418,-3.887 -0.918,-0.504 -2.227,-1.461 -2.07,-3.063 0.144,-0.761 1.007,-1.074 1.738,-0.761 0.742,0.351 4.687,1.797 5.559,2.148 1.746,0.645 1.375,0.313 2.078,0.176 0,0 -7.793,-3.399 -8.387,-3.75 -0.578,-0.352 -0.891,-1.191 -0.891,-1.875 0.086,-0.879 0.891,-1.426 1.66,-1.113 0.579,0.195 4.141,1.836 5.157,2.285 1.015,0.449 1.894,-0.137 1.894,-0.137 0,0 -6.738,-2.969 -6.894,-3.242 -0.098,-0.078 -0.352,-0.469 -0.254,-0.742 l -11.809,4.179 -2.097,-11.796 16.328,0.195 c 0,0 -6.453,-36.856 -11.524,-65.508 1.746,-7.48 2.364,-14.727 -4.336,-24.473 m 45.176,39.961 c -1.426,6.055 -8.586,19.395 -4.101,19.766 1.914,0.176 12.585,-9.316 17.57,-9.316 4.969,0 6.265,2.304 7.195,3.925 3.684,6.68 5.625,7.598 5.625,7.598 -1.328,-1.582 -2.488,-3.555 -4.551,-7.637 -1.718,-3.476 -3.789,-7.304 -5.781,-11.543 -5.754,-12.226 -18.254,-28.808 -18.254,-28.808 2.883,6.113 3.203,22.246 2.297,26.015 m 27.422,8.008 c 0.039,2.031 -0.313,3.34 -0.918,3.496 -0.332,-0.195 -3.035,-2.597 -4.746,-7.578 -1.555,-4.922 -3.047,-8.652 -7.813,-20.957 -7.89,-20.488 -13.82,-23.887 -13.82,-23.887 1.262,4.414 -1.883,10.039 -1.883,10.039 7.149,7.618 28.465,46.875 31.66,50.567 3.196,3.613 3.946,2.187 3.946,2.187 -3.621,-2.89 -5.489,-8.183 -6.426,-13.867 m 5.215,-50.781 c 0.605,2.305 0.762,30.762 0.762,30.762 0.898,-10.684 4.57,-35.313 4.57,-35.313 -4.277,0.449 -5.938,2.285 -5.332,4.551 m 23.887,42.969 c -1.297,8.925 -1.457,11.035 -4.227,15.429 0,0 6.18,-6.015 6.668,-17.246 0.469,-11.172 -0.664,-40.078 -1.465,-47.91 0,0 -4.875,-6.172 -8.281,4.395 0,0 3.406,-2.11 4.707,6.152 1.301,8.32 3.906,30.234 2.598,39.18 M 318.84,432.031 c 5.828,-1.398 8.035,-0.508 10.066,0 -0.508,-2.234 -5.215,-2.148 -5.215,-2.148 0.977,-0.481 2.715,-2.414 3.614,-3.879 1.965,-3.172 -2.727,-1.387 -2.727,-1.387 -0.301,4.278 -5.738,7.414 -5.738,7.414 m 1.57,-27.187 c 0.508,-2.285 1.192,-6.895 2.09,-10.832 -0.527,-0.645 -2.695,-2.547 -4.629,-4.188 4.414,3.731 3.008,12.645 2.539,15.02 m -47.949,-38.047 c 0.84,-0.332 2.629,-0.313 3.164,-0.117 0,0 4.473,1.504 5.156,1.699 1.66,0.547 1.641,0.293 2.071,1.523 0.429,-2.793 2.089,-4.023 4.785,-4.394 3.269,-0.449 5.136,2.09 7.558,2.031 0,0 2.715,-0.234 3.184,-0.176 0.273,-0.957 0.547,-1.66 0.547,-1.66 2.558,-2.051 4.258,0.742 3.242,2.754 0,0 1.465,-1.543 3.723,-1.68 2.925,-0.136 9.273,1.563 12.39,2.598 3.391,1.172 9.961,3.691 10.821,5.801 0.656,1.562 -2.637,7.379 -3.887,10.855 -0.547,1.41 -0.723,1.586 -1.465,3.578 0.574,-1.515 2.051,-4.613 3.809,-8.05 0.254,-0.547 0.546,-1.075 0.8,-1.661 1.282,-2.382 2.618,-4.878 3.899,-7.007 1.453,-2.559 2.82,-4.668 3.711,-5.606 2.976,-3.164 5.574,-4.726 7.312,-7.851 -2.785,4.062 -5.742,17.734 -7.312,22.906 -1.594,5.199 -6.809,14.625 -8.156,17.074 -1.348,2.481 -3.575,10.566 -3.895,13.281 -0.441,3.543 0.086,7.95 0.086,7.95 0,0 5.723,-17.082 6.289,-19.532 0.559,-2.472 6.523,-21 7.742,-23.597 1.235,-2.575 8.977,-24.02 11.008,-26.305 0.613,-0.449 2.422,-2.461 4.062,-4.453 2.149,-2.539 4.317,-5.41 6.622,-9.082 -2.2,2.969 -5.313,4.043 -5.313,4.043 -2.422,1.797 -2.285,2.871 -2.5,4.043 -0.496,2.773 -2.871,5.449 -2.871,5.449 -1.152,0.898 -2.148,2.148 -3.098,3.555 -0.918,1.445 -1.785,3.086 -2.664,4.668 0,0 -5.508,4.961 -8.965,6.64 -3.855,1.875 -5.839,2.949 -8.613,1.758 -8.625,-3.848 -17.578,-4.258 -18.359,-4.141 -7.793,1.25 -2.969,-2.421 -2.969,-2.421 4.277,-0.86 3.867,-2.403 14.121,-2.891 9.539,-0.469 10.82,-0.625 15.977,-1.602 5.129,-0.976 7.89,-3.906 7.89,-3.906 -5.222,1.699 -8.925,2.5 -16.25,1.133 -11.289,-2.012 -21.738,7.266 -21.738,7.266 -7.031,3.222 -6.152,-1.114 -5.176,-2.168 1.485,-1.641 2.735,-2.422 2.735,-2.422 -4.856,1.699 -2.649,-1.504 -2.649,-1.504 3.274,-1.68 5.473,-3.574 5.473,-3.574 13.238,-12.188 22.664,-14.219 28.426,-13.262 0.82,0.156 2.539,0.82 3.3,0.625 -2.148,-0.879 -2.832,-1.621 -3.554,-2.227 -2.84,-2.343 -9.61,-3.535 -14.832,-4.258 -6.731,-0.917 -13.723,0.684 -15.93,2.403 -1.484,1.211 -1.934,5.312 1.055,6.211 4.035,1.211 5.019,2.539 5.207,4.883 0.125,1.621 -3.672,5.625 -3.672,5.625 -6.106,3.437 -8.403,1.171 -8.403,1.171 l 2.09,11.797 h -0.535 l -4.219,0.039 c -1.574,0 -1.23,0.059 -3.007,-0.078 -1.075,-0.078 -2.227,-0.234 -3.399,-0.039 -0.215,0.039 -0.43,0.117 -0.625,0.176 l -4.512,0.02 c 0.11,0.625 0.196,1.113 0.293,1.699 v 0 c -0.937,0.488 -1.66,0.918 -1.66,0.918 0,0 -1.152,-0.02 -2.168,-0.391 -1.211,-0.43 -3.398,-1.074 -3.398,-1.074 z m 62.812,-22.637 c 0,0 -6.152,-4.082 -15.078,1.074 -9.004,5.137 -12.226,7.637 -12.988,8.262 0,0 8.887,-4.199 14.746,-2.91 5.86,1.211 8.176,2.441 13.606,2.383 0,0 -8.918,-2.676 -8.379,-7.461 0.203,-1.817 3.992,-2.305 8.093,-1.348"
         style="fill:#ffffff;fill-opacity:1;fill-rule:nonzero;stroke:none"
         transform="matrix(0.13333333,0,0,-0.13333333,0,92.346667)" />
      <path
         id="path12"
         d="m 197.793,373.496 c 0.09,0.137 0.187,0.352 0.254,0.469 -0.067,-0.117 -0.164,-0.332 -0.254,-0.469"
         style="fill:#ffffff;fill-opacity:1;fill-rule:nonzero;stroke:none"
         transform="matrix(0.13333333,0,0,-0.13333333,0,92.346667)" />
      <path
         id="path13"
         d="m 177.742,412.148 c 0,0 0.696,-8.933 3.86,-10.527 3.554,-1.785 5.839,-6.094 10.722,-3.723 0,0 17.91,16.77 17.918,23.848 -2.41,1.524 -3.211,4.043 -3.367,4.414 1.484,-3.094 4.473,-4.754 6.387,-3.066 4.414,3.886 4.375,4.629 4.375,4.629 2.734,-0.516 5.722,2.707 5.605,3.527 -0.09,0.906 -0.539,1.727 -1.133,2.137 2.911,-2 4.102,2.035 4.102,2.035 1.394,0.816 1.785,1.812 1.785,1.812 l -0.476,0.508 c 4.433,-0.508 8.32,1.699 8.32,1.699 0.449,0.403 0.488,0.735 0.332,1.047 -0.332,0.653 -1.602,1.035 -1.602,1.035 0,0 -10.781,-0.683 -11.457,-0.851 -2.351,-0.567 -1.25,-2.723 -1.316,-4.102 -0.098,-1.734 -0.723,-2.324 -0.723,-2.324 0.684,1.524 0.442,2.07 -0.234,3.567 -0.625,1.367 -1.719,0.859 -1.309,1.765 0.43,0.957 1.231,1.945 3.653,2.297 1.894,0.234 4.316,3.758 4.461,6.379 0.019,0.691 -0.204,1.031 -0.594,1.16 -1.192,0.399 -3.672,-1.016 -4.629,-1.555 -0.84,-0.546 -4.59,-1.445 -4.59,-1.445 0,0 1.484,0.305 3.086,1.184 1.562,0.879 4.578,2.683 5.469,2.683 0.879,0 4.109,0.684 5.117,0.684 5.383,1.777 2.832,4.035 1.641,4.125 -0.555,0.039 -6.29,-1.086 -7.098,-1.086 -1.008,0 -10.598,-4.5 -11.789,-5.07 -1.184,-0.614 -4.238,-7.664 -4.629,-9.024 -0.41,-1.336 -1.941,-5.359 -1.941,-5.359 -2.688,0.644 -4.055,-2.004 -5.149,-3.34 -1.289,-1.496 -6.516,-8.234 -7.422,-9.207 -0.918,-1.02 -8.215,-5.531 -8.215,-5.531 -1.922,-3.399 -0.652,-5.926 -0.828,-5.586 0,0 -1.672,1.847 -1.133,4.765 0,0 0.711,2.004 0.176,3.438 -0.469,0.683 -1.164,1.68 -1.387,2.023 -0.449,0.606 -0.859,1.094 -1.066,1.336 0,0 -5.945,3.789 -4.922,-10.301"
         style="fill:#ffffff;fill-opacity:1;fill-rule:nonzero;stroke:none"
         transform="matrix(0.13333333,0,0,-0.13333333,0,92.346667)" />
      <path
         id="path14"
         d="m 212.305,380.855 c 0.175,-2.031 0.371,-4.292 0.605,-6.753 -6.23,-0.782 -12.219,-1.875 -16.953,-2.813 -2.441,-2.109 -6.348,-4.043 -10.41,-5.566 l 0.039,0.019 c 0.254,-1.601 0.84,-2.832 1.445,-2.773 0,0 13.086,0.039 26.739,1.269 0.605,-6.523 1.269,-13.808 1.945,-21.269 v 0.039 c 0.672,-1.582 1.961,-13.613 1.277,-14.746 0.028,0 0.028,0.078 0.028,0.078 0,-0.059 0,-0.078 0.019,-0.117 -0.019,0 -0.019,0.019 -0.047,0.039 -12.414,17.656 -30.461,24.609 -40.906,27.324 -2.895,0.215 -4.66,0.254 -5.188,-4.453 0,0 -0.585,-7.168 -0.332,-10.977 0.235,-2.968 1.719,-8.144 3.653,-8.769 1.933,-0.625 4.258,-0.176 4.258,-0.176 -0.567,-0.137 -2.344,-1.27 -3.465,-2.031 -1.106,-0.762 -3.547,-2.149 -4.524,-3.848 -0.984,-1.699 3.66,-0.508 3.66,-0.508 0.207,-1.406 2.524,-0.898 2.524,-0.898 0,0 0.203,-3.418 7.703,0.586 4.238,2.265 6.316,4.297 9.57,5.312 -1.074,-0.351 -3.086,-1.914 -4.441,-3.047 -2.531,-2.031 -4.238,-3.75 -6.633,-5.625 -2.195,-1.718 -9.519,-4.726 -14.961,-6.172 0.996,-1.074 3.281,-0.253 3.281,-0.253 -0.031,-13.243 20.215,-2.168 20.215,-2.168 -16.328,-13.301 -22.82,-0.137 -26.843,-5.508 18.914,-12.832 39.46,9.785 43.562,14.219 4.727,5.039 10.781,4.043 10.781,4.043 0,0 -0.078,-4.981 -0.625,-11.309 0,0.039 0.02,0.137 0.02,0.176 1.711,-19.121 3.144,-34.883 3.347,-37.09 0.637,-6.25 0.637,-8.535 -1.609,-9.649 -3.086,-1.543 -5,-1.347 -8.105,0.821 -1.946,1.367 -3.606,2.968 -5.059,4.648 -0.02,0 -0.039,-0.058 -0.039,-0.058 l 0.039,0.058 c -2.129,2.481 -3.672,5.02 -4.687,6.914 2.656,-1.719 4.777,-1.816 6.132,-1.543 0.157,0.039 0.489,0.117 0.489,0.117 0.8,0.235 1.269,0.528 1.308,0.586 l 0.918,0.664 -0.957,0.586 c -0.176,0.118 -0.332,0.235 -0.508,0.332 0,-0.019 -0.019,-0.019 -0.019,-0.019 v 0.019 c -9.414,6.289 -11.281,17.207 -11.653,21.075 0.325,-2.676 1.633,-8.301 6.946,-11.309 9.121,11.523 12.461,19.863 7.676,25.352 -2.149,2.48 -9.942,-1.856 -14.786,-5.215 -3.535,-2.481 -7.043,-5.098 -12.558,-9.649 -4.981,-4.14 -15.391,-14.433 -15.391,-14.433 0,0 11.32,14.902 5.313,14.179 -3.789,-1.836 -5.899,-7.636 -9.121,-13.32 -2.637,-5.293 -2.5,-6.445 -7.442,-8.769 -0.246,-10.586 19.817,1.269 27.07,8.515 4.305,4.317 5.625,5.899 6.868,9.414 l -0.383,-1.015 c -0.828,-2.364 -1.277,-4.649 -1.485,-6.817 -2.753,-2.402 -1.64,-1.601 -4.011,-3.242 -0.129,-0.117 -0.422,-0.332 -0.879,-0.684 -3.41,-2.558 -15.293,-11.601 -25.727,-16.093 -4.683,-2.012 0.332,-10.039 0.332,-10.039 -0.867,-5.391 6.828,-10.84 6.828,-10.84 0,0 3.79,-1.27 7.149,0.918 3.769,-1.426 9.812,1.015 15.469,4.219 7.246,4.121 13.789,9.492 13.789,9.492 -2.039,2.07 -3.594,2.597 -5.285,3.3 0,0 -2.125,0.723 -5.809,0 -3.723,-0.703 -8.867,-2.792 -17.422,-8.32 0,0 8.125,7.285 15.43,15.137 2.129,2.324 0.097,7.285 0.097,12.168 0.45,-8.262 4.493,-13.848 4.551,-13.945 l 1.809,-2.461 -0.442,3.027 c -0.363,2.402 -0.097,5.41 0.215,7.637 2.422,-7.266 4.949,-11.934 7.227,-15.039 h 0.019 v -0.039 c 2.285,-3.106 4.309,-4.707 5.762,-5.821 4.387,-3.418 11.133,-7.988 15.801,-11.094 v -0.019 h 0.019 c 2.989,-1.973 5.118,-3.359 5.176,-3.398 l 0.527,-0.333 0.418,0.469 c 0.129,0.117 11.457,11.778 17.2,18.809 2.324,2.871 6.523,8.047 7.988,23.32 0.801,-2.109 1.699,-4.961 1.914,-7.422 l 0.137,-1.699 c -0.02,-0.215 -0.039,-0.312 -0.078,-0.508 l 0.078,0.528 0.129,-1.329 1.199,2.813 c 0.051,0.098 2.566,6.133 1.406,13.965 -0.808,5.527 -3.437,11.933 -10.058,17.832 l -1.727,1.562 0.496,-2.304 c 0,-0.137 3.164,-15.039 -6.875,-25.078 l -0.781,-0.801 1.035,-0.449 c 0.137,-0.079 3.625,-1.485 7.551,2.617 -0.93,-3.457 -2.934,-9.043 -6.907,-13.457 -2.539,-2.813 -4.343,-3.457 -7.734,-2.618 -2.441,0.547 -2.937,2.793 -3.73,8.985 -0.52,4.121 -7.52,54.219 -12.063,86.699 13.84,1.856 26.953,4.863 26.953,4.863 0.637,0.098 0.957,1.543 0.774,3.243 -0.215,1.738 -0.86,3.085 -1.485,3.027 0,0 -13.652,-0.039 -27.597,-1.348 -0.332,2.344 -0.645,4.489 -0.918,6.442 0.5,-0.02 1.023,-0.059 1.433,-0.02 -1.394,-0.078 -3.379,0.137 -5.125,0.137 -1.101,0 -1.797,-0.215 -2.558,-0.528"
         style="fill:#ffffff;fill-opacity:1;fill-rule:nonzero;stroke:none"
         transform="matrix(0.13333333,0,0,-0.13333333,0,92.346667)" />
      <path
         id="path15"
         d="m 131.563,261.66 c 1.015,2.91 0.507,13.457 0.507,13.457 0,-1.679 -0.351,-7.676 -4.375,-14.121 -1.425,-2.266 -3.027,-11.133 -3.027,-11.133 0,0 0.996,-2.343 4.719,-1.347 -0.371,6.25 0.652,8.769 2.176,13.144"
         style="fill:#ffffff;fill-opacity:1;fill-rule:nonzero;stroke:none"
         transform="matrix(0.13333333,0,0,-0.13333333,0,92.346667)" />
      <path
         id="path16"
         d="m 191.633,388.973 c 0,0 -8.235,-3.43 -11.008,-5.149 -5.039,-3.027 -6.836,-8.394 -7.09,-10.191 -0.43,-3.262 -0.742,-6.641 7.344,-3.789 14.551,5.097 14.348,6.133 14.348,6.133 -2.2,1.578 0.281,12.304 0.281,12.304 -0.695,1.016 -3.875,0.692 -3.875,0.692"
         style="fill:#ffffff;fill-opacity:1;fill-rule:nonzero;stroke:none"
         transform="matrix(0.13333333,0,0,-0.13333333,0,92.346667)" />
      <path
         id="path17"
         d="m 297.871,615.195 37.852,0.02 0.039,-0.059 -8.418,-36.777 -0.078,-0.164 0.039,0.066 -0.02,-0.09 0.098,0.188 23.398,29.5 h 0.078 l 23.614,-29.637 -8.575,36.883 0.047,0.031 37.883,0.039 -34.199,16.278 23.652,29.64 -34.051,-16.543 -8.363,36.973 -8.301,-36.926 -34.05,16.594 -0.071,-0.078 23.633,-29.582 v -0.039 l -34.207,-16.317"
         style="fill:#ffffff;fill-opacity:1;fill-rule:nonzero;stroke:none"
         transform="matrix(0.13333333,0,0,-0.13333333,0,92.346667)" />
      <path
         id="path18"
         d="M 336.27,115.391 C 312.09,96.7188 280.781,85.4883 246.523,85.4883 c -34.218,0 -65.566,11.2305 -89.753,29.9027 -24.172,-18.6722 -55.5,-29.9027 -89.7583,-29.9027 -2.5976,0 -4.6875,0.0586 -7.2773,0.1758 8.5273,-9.9219 17.8125,-19.1407 27.8554,-27.5782 26.4732,3.4375 49.7542,13.6719 69.1802,28.6719 24.187,-18.6523 55.535,-29.9219 89.753,-29.9219 34.258,0 65.567,11.2696 89.747,29.9219 19.453,-15 42.773,-25.2148 69.218,-28.6523 10,8.4375 19.297,17.6367 27.813,27.5586 -2.559,-0.1172 -4.629,-0.1758 -7.246,-0.1758 -34.258,0 -65.594,11.2305 -89.785,29.9027"
         style="fill:#ffffff;fill-opacity:1;fill-rule:nonzero;stroke:none"
         transform="matrix(0.13333333,0,0,-0.13333333,0,92.346667)" />
      <path
         id="path19"
         d="m 433.328,85.6641 0.129,0.1562 c -0.059,-0.0586 -0.117,-0.1172 -0.156,-0.1562 h 0.027"
         style="fill:#ffffff;fill-opacity:1;fill-rule:nonzero;stroke:none"
         transform="matrix(0.13333333,0,0,-0.13333333,0,92.346667)" />
      <path
         id="path20"
         d="m 173.328,486.211 c 0,0 -2.168,-1.32 -3.543,-1.145 0,0 -2.781,-2.117 -3.64,-4.558 -0.469,-1.289 -0.774,-1.836 -1.497,-2.547 -0.8,-0.852 -1.679,-1.262 -1.679,-1.262 0,-0.527 -0.149,-1.035 -0.41,-1.594 -0.567,-1.082 -1.414,-2.558 -2.168,-3.308 -1.172,-1.192 -1.297,-2.586 -1.075,-3.059 0.625,-0.867 0,-1.23 -0.246,-2.359 -0.222,-0.863 0.325,-2.863 0.285,-3.734 -0.136,-2.325 -0.468,-2.657 -1.035,-3.672 -0.605,-1.063 0.325,-2.254 0.325,-2.254 -0.266,-0.274 -0.911,-0.625 -1.36,-0.723 1.563,-3.808 5.957,-3.351 7.793,-3.125 0.664,0.078 2.695,-0.117 3.906,-0.242 1.438,-0.16 4.141,-0.805 5.391,-0.539 3.75,0.691 2.566,4.25 2.441,5.39 -0.273,1.18 -2.402,2.801 -2.402,2.801 0,0 1.836,-0.777 3.496,-0.808 l -0.195,0.906 c 0,0 -0.547,0.187 -1.465,0.422 -1.074,0.246 -3.457,0.32 -3.457,0.32 0,0 3.34,0.645 5.586,0.344 l -0.469,2.949 c 4.629,-0.098 3.731,2.598 3.067,4.051 -0.391,0.82 -1.094,2.648 -1.582,4.465 -0.34,1.347 -0.672,2.422 -0.672,2.605 0,0.129 0.476,1.125 0.332,1.887 -0.578,2.976 -0.45,8.016 -0.45,8.016 -1.093,0 -2.406,0.773 -2.406,0.773 0,0 -1.453,-0.645 -2.871,0 m 2.07,-13.047 c -0.574,-0.351 -0.984,-0.527 -1.753,-0.129 -0.969,0.449 0,1.477 -2.485,1.836 0,0 0.41,0.402 1.633,0.703 1.934,0.578 3.391,-0.281 3.391,-0.281 0,0 -0.149,-1.758 -0.786,-2.129 m 0.95,2.664 c -1.172,0.168 -1.758,0.86 -3.36,0.527 -1.601,-0.292 -3.008,-0.437 -4.394,-0.066 0,0 1.679,0.438 2.695,1.024 0.996,0.609 3.633,1.679 7.246,-0.254 0,0 -1.023,-1.395 -2.187,-1.231"
         style="fill:#ffffff;fill-opacity:1;fill-rule:nonzero;stroke:none"
         transform="matrix(0.13333333,0,0,-0.13333333,0,92.346667)" />
      <path
         id="path21"
         d="m 336.27,172.656 c -24.18,-18.652 -55.489,-29.941 -89.747,-29.941 -34.218,0 -65.566,11.289 -89.753,29.941 -24.172,-18.652 -55.5,-29.941 -89.7583,-29.941 -16.7969,0 -32.6679,2.695 -47.539,7.676 h -0.0196 c 4.8907,-11.543 10.6446,-22.618 17.168,-33.164 9.8828,-2.051 19.8242,-3.145 30.3906,-3.145 34.2583,0 65.5863,11.27 89.7583,29.941 24.187,-18.671 55.535,-29.941 89.753,-29.941 34.258,0 65.567,11.27 89.747,29.941 24.191,-18.671 55.527,-29.941 89.785,-29.941 10.566,0 20.468,1.094 30.39,3.145 6.516,10.546 12.266,21.621 17.149,33.164 -14.883,-4.942 -30.742,-7.676 -47.539,-7.676 -34.258,0 -65.594,11.289 -89.785,29.941"
         style="fill:#ffffff;fill-opacity:1;fill-rule:nonzero;stroke:none"
         transform="matrix(0.13333333,0,0,-0.13333333,0,92.346667)" />
      <path
         id="path22"
         d="m 144.375,461.086 c 0.129,1.012 0.188,1.258 0.391,2.203 0.468,2.316 1.562,4.133 1.562,4.133 -2.48,-8.359 1.414,-11.32 0.762,-10.859 0,0 -1.25,3.281 0.781,5.808 0,0 -0.586,-2.664 0.156,-3.398 0,0 0.098,2.472 1.551,4.347 1.223,1.621 1.582,2.481 1.965,4.063 0.477,2.121 0.742,3.015 1.25,3.847 0,0 -0.527,-1.171 -0.664,-3.546 -0.051,-1.434 -0.09,-1.59 -0.496,-2.743 -0.852,-2.382 -2.434,-6.945 1.082,-9.367 0,0 -1.856,3.821 0.027,6.242 0,0 -0.418,-3.82 1.684,-4.64 0,0 -0.696,2.914 0.418,5.285 0.761,1.59 0.761,3.477 0.781,4.16 0,0 0.684,-2.57 0,-4.277 -0.586,-1.387 -0.41,-3.34 0.605,-4.309 0,0 -0.722,1.223 0.547,2.961 1.289,1.719 2.032,3.789 1.602,5.586 -0.574,2.449 -2.274,3.594 0.715,7.59 0,0 -0.5,-2.942 -0.051,-4.633 -0.098,0.469 -0.137,1.125 0.098,2.024 0.586,2.371 1.25,1.707 0.586,4.296 -0.43,1.641 1.308,3.243 1.308,3.243 0,0 -0.195,-0.262 -0.234,-1.18 0,-0.422 0.332,-1.039 0.488,-1.449 0.195,-0.547 0.266,-1.739 0.266,-1.739 0.508,0.832 0.32,2.805 0.261,4.18 -0.117,1.758 0.801,3.469 0.801,3.469 0,0 -0.176,-0.656 -0.078,-2.512 0.059,-1.238 0.43,-2.234 0.43,-3.172 0,0 0.918,0.223 1.047,2.637 0.132,2.051 0.808,2.82 0.632,4.492 1.141,-1.348 0.469,-4.453 0.469,-4.453 1.602,1.98 0.84,2.938 0.586,4.59 -0.254,1.512 1.465,2.566 1.465,2.566 -0.723,-0.703 -0.488,-2.39 0.391,-2.48 0.8,-0.086 2.226,1.015 2.226,1.015 0,0 2.793,0.625 2.793,3.02 0,0 1.16,-2.695 2.949,-0.457 0,0 0.02,-0.902 0.672,-1.418 2.317,-0.762 1.289,3.379 1.289,3.379 0,0 0.578,-0.344 1.047,-1.016 1.211,-1.66 0.547,1.328 0.547,1.328 -1.641,2.977 -8.066,4.383 -11.133,4.727 -3.039,0.359 -6.484,0.527 -9.961,0.359 -4.812,-0.281 -7.09,-2.304 -9.316,-4.168 -2.129,-1.777 -4.141,-5.722 -6.184,-14.472 -2.019,-8.77 -4.246,-15.743 -4.246,-16.875 0.156,-5.918 5.645,-2.657 6.133,1.613"
         style="fill:#ffffff;fill-opacity:1;fill-rule:nonzero;stroke:none"
         transform="matrix(0.13333333,0,0,-0.13333333,0,92.346667)" />
      <path
         id="path23"
         d="m 193.535,359.238 c -6.64,3.184 -12.058,5.098 -12.058,5.098 -10.012,-2.481 -3.762,-6.445 -2.375,-7.051 4.57,-1.875 11.378,-5.43 18.543,-9.98 7.355,-4.688 17.746,-11.485 18.019,-4.59 -3.633,6.543 -13.73,12.539 -22.129,16.523"
         style="fill:#ffffff;fill-opacity:1;fill-rule:nonzero;stroke:none"
         transform="matrix(0.13333333,0,0,-0.13333333,0,92.346667)" />
      <path
         id="path24"
         d="m 126.797,585.195 c -11.035,0 -21.043,4.258 -28.5548,11.133 9.0938,-11.387 23.3278,-18.555 39.0548,-18.555 27.41,0 49.598,22.207 49.598,49.629 0,27.422 -22.188,49.649 -49.598,49.649 -15.598,0 -29.961,-7.324 -39.0548,-18.594 7.5118,6.902 17.5198,11.133 28.5548,11.133 23.281,0 42.156,-18.887 42.156,-42.188 0,-23.293 -18.875,-42.207 -42.156,-42.207"
         style="fill:#ffffff;fill-opacity:1;fill-rule:nonzero;stroke:none"
         transform="matrix(0.13333333,0,0,-0.13333333,0,92.346667)" />
      <path
         id="path25"
         d="m 140.566,444.648 c -0.402,3.125 2.286,3.946 3.653,4.5 0,0 -2.012,-0.046 -5.149,-2.656 -1.004,-0.82 -2.722,-2.41 -3.738,-3.621 -3.379,-4.25 -7.812,-10.461 -9.668,-16.855 -3.699,-12.801 -4.023,-18.184 -4.375,-25.586 -0.215,-4.7 -1.523,-21.43 -1.875,-32.11 -0.234,-7.031 -0.586,-11.523 -0.644,-14.843 -0.149,-3.282 -0.743,-98.965 -0.743,-98.965 l 1.786,22.07 5.207,53.438 c 0,0 2.5,20.39 2.988,33.222 0.508,12.774 1.523,37.188 2.031,40.703 0.488,3.563 2.5,12.645 4.363,14.832 l -2.507,-79.5 c 0,0 0.644,-17.324 0.832,-23.574 0,0 -0.657,-38.867 -0.657,-40.586 l 5.039,-26.601 c 1.512,-0.782 3.887,-0.996 6.739,1.172 l -3.047,8.085 -4.356,23.731 c 0,0 1.309,0.156 2.344,1.211 1.055,0.996 1.68,3.515 1.68,3.515 0.332,8.086 8.086,54.239 10.781,62.325 2.688,8.086 3.711,28.961 23.867,41.433 0,0 -2.324,2.348 -6.367,3.02 -4.043,0.683 -3.008,1.035 -3.008,1.035 1.524,2.461 -2.715,8.418 -2.715,8.418 -4.824,7.852 -7.597,9.129 -11.433,13.586 -5.051,5.808 -0.344,7.605 -0.344,7.605 0.879,-3.918 2.344,-5.714 4.355,-8.507 2.032,-2.809 7.422,-12.684 7.422,-12.684 0,0 2.051,14.238 -7.851,25.937 -2.422,2.852 -4.766,5.204 -6.836,7.176 -0.879,0.813 -1.68,1.594 -2.442,2.285 -1.132,1.047 -3.418,3.352 -3.585,3.633 -0.282,0.305 -0.262,0.52 -0.45,0.813 0.825,-0.813 2.09,-1.653 3.996,-2.461 7.852,-3.41 15.657,-5.02 19.571,-1.629 1.308,0.906 1.418,4.082 1.015,4.957 -0.625,1.426 -1.648,2.051 -0.625,5 0.352,1 0.711,2.148 -1.953,2.297 -3.086,0.176 -5.429,2.129 -5.976,3.078 -0.332,0.523 -0.594,2.457 -0.594,2.457 0,0 -1.113,-0.25 -1.789,0.012 0,0 -1.192,-1.524 -2.188,-0.996 0,0 -2.109,-1.329 -4.433,-0.168 l -3.274,-0.997 c 0,-2.207 -1.394,-4.707 -1.394,-4.707 0,0 -2.649,-3.347 -3.653,-4.5 m 13.399,-45.585 c 3.445,-8.223 9.473,-6.465 9.473,-6.465 -11.446,-5.344 -15.696,-25.45 -15.696,-25.45 1.047,16.52 8.567,21.024 6.223,31.915 m -8.352,36.484 c 0,0 -1.336,0.555 -3.406,1.473 -1.719,0.793 -4.062,1.652 -5.43,4.191 -0.769,1.934 1.438,4.461 2.442,5.281 0,0 -3.281,-3.621 6.394,-10.945"
         style="fill:#ffffff;fill-opacity:1;fill-rule:nonzero;stroke:none"
         transform="matrix(0.13333333,0,0,-0.13333333,0,92.346667)" />
      <path
         id="path26"
         d="m 246.531,28.2227 c -34.226,0 -65.574,11.25 -89.754,29.9218 -11.699,-9.0429 -25.089,-16.3281 -39.668,-21.4648 h -0.031 c 9.074,-5.5859 18.547,-10.6055 28.352,-15.0586 3.945,2.4414 7.754,5.0977 11.347,7.8516 C 180.957,10.8594 212.305,0 246.531,0 c 34.25,0 65.578,10.8594 89.797,29.4727 3.582,-2.7539 7.356,-5.4102 11.309,-7.8516 9.785,4.4531 19.258,9.4531 28.34,15.0586 -14.59,5.1367 -27.989,12.4219 -39.649,21.4648 C 312.109,39.4727 280.781,28.2227 246.531,28.2227"
         style="fill:#ffffff;fill-opacity:1;fill-rule:nonzero;stroke:none"
         transform="matrix(0.13333333,0,0,-0.13333333,0,92.346667)" />
      <path
         id="path27"
         d="m 328.73,459.883 c -0.625,1.484 -0.742,5 -1.328,7.234 -0.312,1.203 -1.574,2.988 -2.793,4.68 0,0 1.258,-1.563 3.653,-3.02 2.168,-1.316 3.945,-4.109 3.996,-5.371 0,0 -0.656,1.153 -2.129,0.93 -1.086,-0.125 -1.731,-2.402 -1.399,-4.453 2.2,-2.578 2.754,0.945 2.754,0.945 0,0 0.977,-0.781 0.469,-2.137 0,0 1.387,-1.535 3.059,0.469 1.082,1.309 1.199,6.016 -3.84,9.617 -5.02,3.633 -4.883,6.379 -4.883,6.379 0,0 1.484,-2.179 4.336,-3.281 2.813,-1.121 4.16,-2.609 4.961,-4.504 0,0 -0.488,1.094 -2.988,1.477 0,0 5.898,-6.192 4.09,-10.039 0,0 2.472,2.07 0.878,5.566 0,0 1.868,-1.582 1.868,-3.125 0,0 1.945,2.617 -2.278,6.98 -2.195,2.317 -1.98,3.469 -2.449,4.329 -0.461,0.879 -1.016,1.336 -2.449,2.773 -1.406,1.406 -1.496,3.008 -2.278,4.969 0,0 0.481,-1.258 2.051,-2.137 0,0 0.606,3.945 -0.781,5.652 0,0 1.504,-1.66 1.895,-3.222 0.39,-1.551 1.406,-3.367 2.109,-4.317 0.715,-0.945 1.523,-2.371 1.191,-4.871 -0.332,-2.558 1.961,-3.261 2.52,-3.808 0.547,-0.539 3.301,-2.668 2.91,-5.989 0,0 1.504,2.239 -0.859,6.145 -2.344,3.945 -1.368,4.875 -1.192,5.281 0,0 0.469,-2.586 2.598,-3.457 0,0 0.539,1.426 -2.91,5.52 -3.457,4.09 -5.821,8.027 -5.684,12.824 0,0 0.176,-1.809 2.949,-3.442 0,0 -0.976,2.415 -1.355,3.918 -0.395,1.504 -1.098,7.149 -9.992,8.829 -2.93,0.183 -13.809,-1.622 -16.328,-3.45 -2.5,-1.812 -5.391,-5.242 -5.079,-9.179 0.059,-0.719 1.985,-4.735 2.461,-5.086 0.039,-0.469 0.039,-0.926 0.059,-1.387 0.02,-0.645 0.02,-1.145 0,-1.262 -0.059,-0.515 -0.652,-1.765 -0.117,-2.234 0.285,-0.254 0.449,-0.742 0.449,-1.27 0,-1.484 -1.582,-7.168 -1.582,-8.222 0,-1.067 0.234,-2.403 2.109,-2.168 0.696,0.125 1.25,0.285 1.641,0.469 0.059,-0.586 0.02,-1.993 -0.039,-2.481 0.684,0.672 1.523,0.555 2.285,0.555 1.262,0 3.469,-0.235 3.469,-0.235 0,0 -1.848,-0.41 -3.137,-0.672 -1.25,-0.234 -1.816,-0.117 -1.816,-0.117 l -0.254,-1.211 c 0,0 2.734,0.188 3.984,1.161 0,0 -0.683,-1.348 -1.66,-1.747 -1.23,-0.5 -1.816,0.481 -2.324,0.586 0,0 1.211,-0.398 1.301,-1.875 0.144,-1.523 -0.676,-3.816 1.726,-4.035 1.231,-0.137 2.676,-0.222 4.024,-0.234 1.308,0 2.519,0.07 3.222,0.285 1.328,0.391 7.844,3.211 8.906,6.465 m -14.16,14.289 c -0.808,-0.813 -0.195,-2.121 -2.07,-2.258 -1.648,-0.129 -2.187,2.422 -2.187,2.422 0,0 2.011,0.945 3.671,0.859 1.543,-0.09 1.973,-0.586 1.973,-0.586 0,0 -0.781,0.157 -1.387,-0.437 m -5.41,0.484 c -1.015,-0.027 -1.758,0.52 -1.758,0.52 1.739,1.297 4.676,2.324 6.289,2.246 2.95,-0.137 4.2,-2.305 4.2,-2.305 -5.039,1.961 -7.696,-0.39 -8.731,-0.461 m 9.602,6.34 c -0.793,0.223 -3.86,-0.969 -6.672,0.125 -2.774,0 -5.82,3.176 -5.82,3.176 -0.196,0.945 -0.059,1.141 0.527,0.984 0.586,-0.183 0.957,-1.14 1.406,-1.785 0.449,-0.664 1.699,-1.711 3.887,-2.375 0,1.438 -0.957,2.383 -0.957,2.383 0,0 1.23,-1.277 2.441,-1.582 7.285,-1.621 3.438,1.75 3.438,1.75 5.312,-2.375 3.75,-5.215 5.097,-8.281 -0.644,0.957 -0.808,2.363 -1.347,3.457 -0.977,1.933 -2,2.148 -2,2.148"
         style="fill:#ffffff;fill-opacity:1;fill-rule:nonzero;stroke:none"
         transform="matrix(0.13333333,0,0,-0.13333333,0,92.346667)" />
      <path
         id="path28"
         d="M 448.535,210.098 H 403.633 V 237.5 H 358.77 V 210.098 H 313.879 V 237.5 H 268.977 V 210.098 H 224.082 V 237.5 H 179.211 V 210.098 H 134.297 V 237.5 H 89.4141 V 210.098 H 44.5313 V 237.5 H 0.175781 C 0.839844,218.809 3.59375,200.625 8.20313,183.242 26.0938,175.605 45.9063,171.348 66.9922,171.348 c 34.2188,0 65.5468,11.269 89.7378,29.922 24.208,-18.653 55.528,-29.922 89.774,-29.922 h 0.078 c 34.238,0 65.527,11.269 89.758,29.922 24.18,-18.653 55.508,-29.922 89.754,-29.922 21.015,0 40.879,4.257 58.73,11.894 4.629,17.383 7.383,35.567 8.067,54.258 h -44.356 v -27.402"
         style="fill:#ffffff;fill-opacity:1;fill-rule:nonzero;stroke:none"
         transform="matrix(0.13333333,0,0,-0.13333333,0,92.346667)" />
      <path
         id="path29"
         d="m 152.5,435.945 c -2.734,0.528 -1.914,-1.269 -1.016,-2.168 5.371,-5.379 13.672,-16.211 14.024,-25.8 0,0 6.25,-2.332 7.344,6.75 0.644,5.449 -1.231,14.628 -2.207,17.136 0,0 0.683,-1.328 2.656,-6.425 2.734,-7.223 1.711,-9.786 2.898,-16.375 0.5,1.367 0.727,3.066 0.891,4.765 0.078,1.649 0.195,3.387 0.254,4.883 0.234,4.922 0.058,9.187 -0.762,11.023 -0.996,2.344 -1.543,3.481 -1.992,4.024 -0.442,0.597 -6.856,8.769 -6.856,8.769 -0.363,-1.914 -1.203,-3.316 -2.304,-4.312 -2.442,-2.992 -7.657,-3.293 -12.93,-2.27"
         style="fill:#ffffff;fill-opacity:1;fill-rule:nonzero;stroke:none"
         transform="matrix(0.13333333,0,0,-0.13333333,0,92.346667)" />
      <path
         id="path30"
         d="m 320.156,438.016 c 2.317,-0.633 5.41,-1.305 8.196,-1.414 2.925,0.281 5.894,0.918 7.683,2.117 1.406,0.929 3.028,2.551 4.387,4.336 0.613,0.761 1.121,1.593 1.57,2.394 0.164,0.281 0.203,0.547 0.332,0.84 0.332,1.191 0.449,3.426 -2.851,5.938 -1.309,0.937 -2.813,4.246 -2.93,4.492 v 0 c -1.367,-0.449 -2.578,0.554 -2.578,0.554 -1.746,-0.515 -2.598,0.598 -2.598,0.598 -0.625,-0.168 -2.012,0.164 -2.637,2.012 0.723,-2.727 -4.863,-5.391 -6.894,-7.961 -1.719,-2.156 -2.871,0.547 -3.938,-0.692 0,-1.679 0.715,-2.218 0.657,-3.117 0,0 -0.059,-2.859 -0.235,-3.711 -0.382,-1.773 -0.996,-5.683 1.836,-6.386"
         style="fill:#ffffff;fill-opacity:1;fill-rule:nonzero;stroke:none"
         transform="matrix(0.13333333,0,0,-0.13333333,0,92.346667)" />
      <path
         id="path31"
         d="m 359.043,251.367 c -0.41,1.934 -1.211,1.699 -3.203,0.899 -1.453,-0.625 -4.18,0.664 -5.84,1.035 -1.602,0.371 -1.824,-0.156 -3.23,-0.449 -1.399,-0.313 -3.391,0.214 -3.391,0.214 -4.063,0.528 -3.731,-3.964 -3.731,-3.964 0.149,-0.528 0.411,-0.997 0.684,-1.426 0.977,-0.742 1.863,-0.918 2.5,-1.231 0.547,-0.293 0.469,-0.625 0.762,-1.132 0,0 5.215,-3.77 8.144,-0.508 0.684,1.484 -3.164,3.925 -2.754,3.711 0,0 1.961,-0.938 3.145,-2.364 1.191,-1.425 3.074,-2.402 4.316,-1.132 1.114,1.699 -2.976,4.453 -2.976,4.453 0,0 1.922,-0.957 3.094,-2.403 1.25,-1.543 2.324,-2.05 2.824,-0.039 -0.754,1.778 -2.688,3.203 -2.688,3.203 0,0 0.891,-0.468 1.856,-1.386 1.179,-1.114 2.168,-0.782 1.875,1.211 -0.274,0.507 -1.387,1.308 -1.387,1.308"
         style="fill:#ffffff;fill-opacity:1;fill-rule:nonzero;stroke:none"
         transform="matrix(0.13333333,0,0,-0.13333333,0,92.346667)" />
      <path
         id="path32"
         d="m 631.016,478.035 -12.161,-38.254 h 24.485 z m 26.093,-81.472 -8.32,26.089 h -35.383 l -8.64,-26.089 h -21.121 l 38.25,105.644 h 18.085 l 38.262,-105.644 h -21.133"
         style="fill:#ffffff;fill-opacity:1;fill-rule:nonzero;stroke:none"
         transform="matrix(0.13333333,0,0,-0.13333333,0,92.346667)" />
      <path
         id="path33"
         d="m 730.645,478.035 -12.161,-38.254 h 24.485 z m 26.093,-81.472 -8.32,26.089 h -35.383 l -8.64,-26.089 H 683.27 l 38.253,105.644 h 18.086 l 38.262,-105.644 h -21.133"
         style="fill:#ffffff;fill-opacity:1;fill-rule:nonzero;stroke:none"
         transform="matrix(0.13333333,0,0,-0.13333333,0,92.346667)" />
      <path
         id="path34"
         d="m 823.184,485.078 h -13.125 v -29.133 h 13.125 c 12.812,0 18.41,4.485 18.41,15.047 0,10.086 -5.285,14.086 -18.41,14.086 z m 21.132,-88.515 -24.171,42.253 h -10.086 v -42.253 h -20.164 v 105.644 h 35.21 c 15.375,0 22.415,-1.926 28.657,-7.848 5.758,-5.277 8.64,-12.964 8.64,-22.886 0,-8.164 -1.922,-14.727 -5.761,-19.848 -4.004,-5.121 -7.688,-7.363 -16.485,-9.766 l 26.25,-45.296 h -22.09"
         style="fill:#ffffff;fill-opacity:1;fill-rule:nonzero;stroke:none"
         transform="matrix(0.13333333,0,0,-0.13333333,0,92.346667)" />
      <path
         id="path35"
         d="m 956.023,396.563 v 45.296 h -54.265 v -45.296 h -20.164 v 105.644 h 20.164 v -42.262 h 54.265 v 42.262 h 20.168 V 396.563 h -20.168"
         style="fill:#ffffff;fill-opacity:1;fill-rule:nonzero;stroke:none"
         transform="matrix(0.13333333,0,0,-0.13333333,0,92.346667)" />
      <path
         id="path36"
         d="m 1074.06,402.164 c -7.67,-5.281 -16.64,-7.684 -29.76,-7.684 -13.29,0 -21.94,2.243 -29.93,7.684 -10.89,7.524 -14.409,16.328 -14.409,35.695 v 64.348 h 19.999 v -65.469 c 0,-15.683 8.17,-23.531 24.97,-23.531 15.37,0 23.54,8.324 23.54,23.531 v 65.469 h 20.16 v -64.348 c 0,-19.367 -3.52,-28.011 -14.57,-35.695"
         style="fill:#ffffff;fill-opacity:1;fill-rule:nonzero;stroke:none"
         transform="matrix(0.13333333,0,0,-0.13333333,0,92.346667)" />
      <path
         id="path37"
         d="m 1171.57,477.074 c -11.21,4.961 -20.33,7.524 -27.37,7.524 -9.44,0 -15.53,-3.84 -15.53,-9.762 0,-4.484 2.56,-7.203 10.09,-11.207 16.16,-8.645 26.73,-15.367 31.69,-20.328 4.48,-4.485 7.21,-11.524 7.21,-18.887 0,-18.887 -13.77,-29.934 -37.14,-29.934 -3.21,0 -6.41,0.165 -9.45,0.641 -7.52,0.965 -11.04,2.242 -22.09,7.363 -1.44,0.641 -3.83,1.758 -6.88,3.204 l 8.49,18.566 c 7.68,-4.16 10.87,-5.762 15.04,-7.363 5.29,-1.922 11.05,-3.043 15.21,-3.043 9.28,0 15.36,4.164 15.36,10.566 0,4.481 -2.4,7.524 -9.28,11.363 l -16.32,9.286 c -18.73,10.722 -24.5,17.765 -24.5,29.292 0,5.278 1.61,10.723 4.16,14.727 1.76,2.719 4.49,5.438 7.85,7.84 7.68,5.285 14.24,7.043 26.57,7.043 7.04,0 13.29,-0.801 19.85,-2.719 5.12,-1.601 8,-2.723 15.04,-6.086 l -8,-18.086"
         style="fill:#ffffff;fill-opacity:1;fill-rule:nonzero;stroke:none"
         transform="matrix(0.13333333,0,0,-0.13333333,0,92.346667)" />
      <path
         id="path38"
         d="m 639.023,246.563 -35.214,50.253 v -50.253 h -20.164 v 105.644 h 20.164 V 302.91 l 33.132,49.297 h 23.215 l -36.34,-51.387 38.254,-54.257 h -23.047"
         style="fill:#ffffff;fill-opacity:1;fill-rule:nonzero;stroke:none"
         transform="matrix(0.13333333,0,0,-0.13333333,0,92.346667)" />
      <path
         id="path39"
         d="m 717.961,336.68 c -20.012,0 -34.738,-15.996 -34.738,-37.285 0,-21.465 14.726,-37.305 34.738,-37.305 19.852,0 34.578,15.84 34.578,37.305 0,21.289 -14.726,37.285 -34.578,37.285 z m 0,-92.188 c -32.973,0 -56.184,22.715 -56.184,54.903 0,32.636 22.735,54.726 56.184,54.726 33.289,0 56.023,-22.09 56.023,-54.726 0,-32.188 -23.214,-54.903 -56.023,-54.903"
         style="fill:#ffffff;fill-opacity:1;fill-rule:nonzero;stroke:none"
         transform="matrix(0.13333333,0,0,-0.13333333,0,92.346667)" />
      <path
         id="path40"
         d="m 882.559,246.563 v 77.48 c -0.801,-5.449 -0.645,-6.25 -4.004,-15.059 l -24.168,-62.421 h -18.086 l -22.09,61.308 c -2.246,6.074 -2.402,7.832 -4.008,16.797 v -78.105 h -18.25 v 105.644 h 24.168 l 28.176,-75.391 c 1.125,-3.046 1.601,-4.16 2.082,-8.164 0.641,4.961 0.965,5.606 1.922,8.164 l 29.289,75.391 h 24.168 V 246.563 h -19.199"
         style="fill:#ffffff;fill-opacity:1;fill-rule:nonzero;stroke:none"
         transform="matrix(0.13333333,0,0,-0.13333333,0,92.346667)" />
      <path
         id="path41"
         d="m 1018.72,246.563 v 77.48 c -0.8,-5.449 -0.64,-6.25 -4,-15.059 l -24.173,-62.421 h -18.086 l -22.09,61.308 c -2.246,6.074 -2.402,7.832 -4.004,16.797 v -78.105 h -18.242 v 105.644 h 24.16 l 28.176,-75.391 c 1.121,-3.046 1.602,-4.16 2.078,-8.164 0.645,4.961 0.969,5.606 1.926,8.164 l 29.285,75.391 h 24.17 V 246.563 h -19.2"
         style="fill:#ffffff;fill-opacity:1;fill-rule:nonzero;stroke:none"
         transform="matrix(0.13333333,0,0,-0.13333333,0,92.346667)" />
      <path
         id="path42"
         d="m 1136.35,252.168 c -7.68,-5.273 -16.64,-7.676 -29.77,-7.676 -13.29,0 -21.93,2.227 -29.93,7.676 -10.89,7.52 -14.4,16.328 -14.4,35.703 v 64.336 h 20 v -65.469 c 0,-15.683 8.16,-23.535 24.97,-23.535 15.37,0 23.53,8.34 23.53,23.535 v 65.469 h 20.17 v -64.336 c 0,-19.375 -3.53,-28.027 -14.57,-35.703"
         style="fill:#ffffff;fill-opacity:1;fill-rule:nonzero;stroke:none"
         transform="matrix(0.13333333,0,0,-0.13333333,0,92.346667)" />
      <path
         id="path43"
         d="m 1244.64,245.605 -45.3,68.34 c -0.32,0.489 -0.96,1.934 -2.24,4.16 -0.64,1.29 -1.12,2.09 -1.28,2.247 -0.64,1.289 -0.96,1.933 -1.44,3.691 v -77.48 h -19.2 v 105.644 h 23.2 l 44.33,-69.473 c 0.17,-0.312 0.65,-1.113 1.13,-2.226 0.48,-1.133 0.8,-1.778 0.95,-2.09 l 0.97,-2.715 0.96,-1.933 v 78.437 h 19.05 V 245.605 h -21.13"
         style="fill:#ffffff;fill-opacity:1;fill-rule:nonzero;stroke:none"
         transform="matrix(0.13333333,0,0,-0.13333333,0,92.346667)" />
      <path
         id="path44"
         d="M 1291.65,246.563 V 352.207 H 1356 v -17.129 h -44.18 V 308.984 H 1348 v -17.129 h -36.18 v -28.164 h 46.26 v -17.128 h -66.43"
         style="fill:#ffffff;fill-opacity:1;fill-rule:nonzero;stroke:none"
         transform="matrix(0.13333333,0,0,-0.13333333,0,92.346667)" />
    </g>
  </g>
</svg>
